<svg width="32" height="32" viewBox="0 0 32 32" fill="none" xmlns="http://www.w3.org/2000/svg">
<path d="M10.5401 11C10.832 11 11.1093 10.8724 11.2993 10.6508L15.2407 6.05247C15.8449 5.34757 17 5.77485 17 6.70326V25.2967C17 26.2252 15.8449 26.6524 15.2407 25.9475L11.2993 21.3492C11.1093 21.1276 10.832 21 10.5401 21H7C6.44772 21 6 20.5523 6 20V12C6 11.4477 6.44772 11 7 11H10.5401Z" fill="#363A36"/>
<path d="M22.5 11.5C22.5 11.5 24 13.5 24 16C24 18.5 22.5 20.5 22.5 20.5M24.5 7.5C24.5 7.5 28 11.2778 28 16C28 20.7222 24.5 24.5 24.5 24.5" stroke="#363A36" stroke-linecap="round"/>
</svg>
