<svg width="32" height="32" viewBox="0 0 32 32" fill="none" xmlns="http://www.w3.org/2000/svg">
<path d="M10.5401 11.5C10.978 11.5 11.394 11.3087 11.679 10.9762L15.6204 6.37786C15.9225 6.02541 16.5 6.23905 16.5 6.70326V25.2967C16.5 25.7609 15.9225 25.9746 15.6204 25.6221L11.679 21.0238C11.394 20.6913 10.978 20.5 10.5401 20.5H7C6.72386 20.5 6.5 20.2761 6.5 20V12C6.5 11.7239 6.72386 11.5 7 11.5H10.5401Z" stroke="#363A36"/>
<path d="M22.5 11.5C22.5 11.5 24 13.5 24 16C24 18.5 22.5 20.5 22.5 20.5M24.5 7.5C24.5 7.5 28 11.2778 28 16C28 20.7222 24.5 24.5 24.5 24.5" stroke="#363A36" stroke-linecap="round"/>
</svg>
