<svg xmlns="http://www.w3.org/2000/svg" width="32" height="32" viewBox="0 0 32 32" version="1.1">
	<path d="M 13 8.500 C 11.708 9.875, 9.605 11, 8.326 11 C 6.202 11, 6 11.433, 6 16 C 6 20.567, 6.202 21, 8.326 21 C 9.605 21, 11.708 22.125, 13 23.500 C 14.292 24.875, 15.720 26, 16.174 26 C 16.628 26, 17 21.500, 17 16 C 17 10.500, 16.628 6, 16.174 6 C 15.720 6, 14.292 7.125, 13 8.500 M 25.451 9.700 C 27.422 13.772, 27.422 18.228, 25.451 22.300 L 23.901 25.500 25.951 23.139 C 28.781 19.879, 28.781 12.121, 25.951 8.861 L 23.901 6.500 25.451 9.700 M 22.500 16 C 22.500 18.645, 22.837 20.600, 23.250 20.345 C 23.663 20.091, 24 18.135, 24 16 C 24 13.865, 23.663 11.909, 23.250 11.655 C 22.837 11.400, 22.500 13.355, 22.500 16" stroke="none" fill="black" fill-rule="evenodd"/>
</svg>