<svg xmlns="http://www.w3.org/2000/svg" width="32" height="32" viewBox="0 0 32 32" version="1.1">
	<path d="M 13 8.500 C 11.708 9.875, 9.605 11, 8.326 11 C 6.202 11, 6 11.433, 6 16 C 6 20.567, 6.202 21, 8.326 21 C 9.605 21, 11.708 22.125, 13 23.500 C 14.292 24.875, 15.720 26, 16.174 26 C 16.628 26, 17 21.500, 17 16 C 17 10.500, 16.628 6, 16.174 6 C 15.720 6, 14.292 7.125, 13 8.500 M 13.703 9.531 C 12.637 10.997, 10.910 12, 9.453 12 C 7.258 12, 7 12.420, 7 16 C 7 19.568, 7.262 20, 9.427 20 C 10.859 20, 12.705 21.081, 13.927 22.635 L 16 25.270 16 16.135 C 16 11.111, 15.887 7.014, 15.750 7.031 C 15.613 7.049, 14.691 8.174, 13.703 9.531 M 25.345 9.700 C 26.255 11.461, 27 14.295, 27 16 C 27 17.705, 26.255 20.539, 25.345 22.300 C 23.825 25.241, 23.823 25.390, 25.328 24.142 C 29.204 20.927, 29.204 11.073, 25.328 7.858 C 23.823 6.610, 23.825 6.759, 25.345 9.700 M 22.500 16 C 22.500 18.970, 22.861 20.539, 23.417 19.983 C 24.604 18.796, 24.604 13.204, 23.417 12.017 C 22.861 11.461, 22.500 13.030, 22.500 16" stroke="none" fill="black" fill-rule="evenodd"/>
</svg>